<?xml version="1.0" standalone="no"?>
<!DOCTYPE svg PUBLIC "-//W3C//DTD SVG 20010904//EN"
 "http://www.w3.org/TR/2001/REC-SVG-20010904/DTD/svg10.dtd">
<svg version="1.0" xmlns="http://www.w3.org/2000/svg"
 width="1024.000000pt" height="1024.000000pt" viewBox="0 0 1024.000000 1024.000000"
 preserveAspectRatio="xMidYMid meet">

<g transform="translate(0.000000,1024.000000) scale(0.100000,-0.100000)"
fill="#000000" stroke="none">
<path d="M3525 10234 c-862 -46 -1524 -225 -2065 -560 -343 -212 -682 -551
-894 -894 -308 -497 -477 -1071 -548 -1860 -19 -210 -19 -3390 0 -3600 71
-789 240 -1363 548 -1860 212 -343 551 -682 894 -894 497 -308 1071 -477 1860
-548 210 -19 3390 -19 3600 0 789 71 1363 240 1860 548 343 212 682 551 894
894 308 497 477 1071 548 1860 19 210 19 3390 0 3600 -71 789 -240 1363 -548
1860 -212 343 -551 682 -894 894 -428 265 -964 442 -1560 515 -362 45 -333 44
-2015 46 -891 1 -1647 0 -1680 -1z m2568 -2873 c185 -63 313 -214 350 -412
l13 -74 515 -5 c507 -5 515 -6 574 -28 86 -33 104 -42 165 -83 104 -69 196
-183 246 -304 l29 -70 3 -1500 c2 -1156 0 -1510 -10 -1545 -55 -204 -223 -388
-411 -450 -126 -42 -96 -41 -2487 -38 l-2295 3 -78 27 c-181 61 -319 179 -398
339 -62 124 -59 32 -59 1640 0 1471 0 1476 21 1540 45 137 124 253 227 334 61
49 87 62 190 103 l67 26 513 4 c386 2 514 6 516 15 2 7 9 44 16 82 18 104 63
189 142 267 90 90 177 133 303 148 33 4 447 7 920 6 l860 -2 68 -23z"/>
<path d="M4248 7090 c-51 -15 -98 -51 -123 -94 -22 -38 -25 -54 -25 -147 -1
-158 -20 -215 -85 -252 -14 -9 -191 -13 -615 -17 l-595 -5 -67 -33 c-80 -39
-149 -113 -178 -190 -20 -52 -20 -77 -18 -1505 l3 -1452 24 -45 c43 -83 87
-127 168 -167 l77 -38 2260 -3 c1383 -1 2285 1 2322 7 128 19 229 94 282 209
l27 57 0 1455 0 1455 -25 50 c-33 67 -105 137 -176 172 l-59 28 -603 5 -603 5
-38 41 -38 40 -5 135 c-5 146 -16 185 -64 232 -66 66 -1 62 -954 64 -476 1
-877 -2 -892 -7z m1081 -689 c20 -5 61 -14 91 -21 95 -19 145 -33 154 -41 6
-5 16 -9 23 -9 7 0 38 -12 70 -26 32 -14 74 -33 93 -42 96 -43 340 -225 340
-253 0 -5 -34 -9 -76 -9 -41 0 -94 -4 -117 -10 -186 -42 -247 -60 -357 -104
l-65 -26 -440 2 -440 3 3 30 c8 70 67 263 102 335 63 130 82 149 161 165 75
15 406 19 458 6z m-623 -79 c-31 -60 -73 -159 -85 -202 -7 -25 -17 -56 -22
-70 -4 -14 -17 -74 -29 -135 -11 -60 -25 -128 -30 -150 -5 -23 -57 -124 -116
-225 -59 -102 -120 -210 -137 -240 -16 -30 -33 -59 -37 -65 -8 -10 -31 -50
-78 -135 -50 -90 -64 -110 -81 -110 -22 0 -166 143 -231 228 -27 37 -64 95
-82 129 l-32 61 23 69 c75 221 249 465 441 618 118 93 197 141 340 203 36 15
76 33 90 39 14 7 37 12 53 12 27 1 27 0 13 -27z m2482 -138 c191 -95 200 -362
15 -471 -65 -38 -169 -44 -241 -13 -94 40 -162 144 -162 245 0 194 214 326
388 239z m-971 -282 c129 -147 248 -390 297 -603 27 -121 39 -319 26 -454 -6
-68 -17 -145 -24 -170 l-12 -47 -56 83 c-74 111 -120 161 -241 266 -143 123
-135 115 -189 212 -11 20 -24 41 -28 46 -4 6 -21 35 -37 65 -17 30 -96 169
-177 309 -81 140 -143 257 -139 261 4 4 28 12 53 19 25 8 56 17 70 21 14 5 48
13 75 19 28 6 68 15 90 20 22 5 85 9 141 10 l101 1 50 -58z m-2447 -634 c1
-30 144 -182 356 -378 27 -25 56 -58 64 -75 8 -16 28 -52 44 -80 43 -74 66
-115 94 -165 13 -25 28 -49 32 -55 4 -5 19 -30 32 -55 75 -134 153 -269 174
-302 39 -62 34 -72 -48 -96 -171 -50 -203 -55 -327 -56 l-123 -1 -42 46 c-95
105 -224 327 -266 457 -55 174 -70 277 -70 474 -1 162 12 282 32 322 10 18 11
18 29 -5 10 -13 19 -27 19 -31z m2484 -391 c95 -94 209 -252 221 -305 17 -81
-129 -358 -288 -543 -102 -119 -255 -237 -424 -326 -118 -62 -253 -109 -253
-87 0 3 13 29 28 57 49 90 96 231 121 362 29 149 23 135 252 535 14 25 36 62
48 83 11 20 31 54 43 75 11 20 26 46 32 57 62 110 110 185 118 185 5 0 51 -42
102 -93z m-646 -796 c15 -9 11 -44 -15 -141 -8 -30 -18 -68 -23 -85 -18 -72
-72 -181 -117 -241 -35 -46 -104 -58 -352 -58 -182 0 -217 3 -296 23 -255 64
-473 176 -633 323 -23 21 -40 43 -38 47 3 4 46 11 96 14 104 8 224 35 343 79
45 16 102 34 127 38 61 10 892 12 908 1z"/>
</g>
</svg>
