<?xml version="1.0" standalone="no"?>
<!DOCTYPE svg PUBLIC "-//W3C//DTD SVG 20010904//EN"
 "http://www.w3.org/TR/2001/REC-SVG-20010904/DTD/svg10.dtd">
<svg version="1.0" xmlns="http://www.w3.org/2000/svg"
 width="500.000000pt" height="500.000000pt" viewBox="0 0 500.000000 500.000000"
 preserveAspectRatio="xMidYMid meet">

<g transform="translate(0.000000,500.000000) scale(0.100000,-0.100000)"
fill="#000000" stroke="none">
<path d="M3142 4037 c-27 -27 -42 -52 -42 -68 0 -30 86 -119 116 -119 26 0
114 90 114 116 0 11 -21 42 -46 67 -60 61 -85 62 -142 4z"/>
<path d="M2225 3581 c-45 -20 -295 -272 -295 -297 0 -8 -4 -13 -9 -10 -4 3
-17 -4 -27 -15 -16 -18 -16 -19 -1 -13 9 3 17 9 17 13 0 4 14 6 30 3 17 -2 30
-9 30 -14 0 -6 -7 -8 -14 -5 -33 13 -3 -21 33 -38 27 -12 38 -23 37 -38 0 -11
5 -22 13 -25 8 -3 11 0 7 7 -4 6 -3 11 2 11 18 0 21 -13 7 -27 -26 -25 -16
-38 10 -13 13 12 22 28 18 34 -3 6 -3 8 2 4 4 -4 35 17 68 47 81 73 148 92
223 60 19 -8 74 -54 122 -103 105 -107 130 -117 196 -78 25 14 58 43 75 63
l31 38 -187 188 c-116 116 -203 196 -228 208 -51 24 -109 24 -160 0z m-273
-303 c-7 -7 -12 -8 -12 -2 0 14 12 26 19 19 2 -3 -1 -11 -7 -17z"/>
<path d="M2739 3523 c-114 -111 -115 -107 70 -255 57 -45 76 -83 62 -122 -17
-42 -102 -125 -157 -152 -44 -21 -62 -25 -96 -20 -58 9 -91 32 -181 125 -81
82 -113 99 -158 82 -35 -13 -155 -139 -151 -158 3 -12 -1 -14 -15 -9 -13 5
-15 4 -7 -4 14 -14 47 -2 40 15 -7 20 29 6 45 -17 23 -34 121 -127 140 -133 9
-3 22 -19 29 -34 6 -16 25 -35 40 -41 35 -15 45 -36 22 -49 -9 -5 -13 -13 -9
-17 5 -5 12 -2 17 6 5 8 12 11 16 7 4 -4 -3 -19 -17 -35 -13 -15 -5 -9 18 12
23 22 39 44 36 50 -3 6 -3 8 1 4 4 -3 28 4 53 18 54 28 125 32 181 9 21 -9 72
-53 118 -100 78 -81 83 -85 125 -85 42 0 47 4 160 118 124 123 140 151 119
202 -7 16 -84 99 -171 184 -87 86 -159 160 -159 165 0 6 11 22 23 37 20 23 34
28 84 32 l59 4 64 -61 c37 -35 72 -61 84 -61 30 0 176 148 176 179 0 28 -132
169 -168 178 -19 4 -34 -5 -80 -50 -105 -102 -135 -103 -232 -12 -38 36 -77
65 -86 65 -9 0 -52 -35 -95 -77z"/>
<path d="M2590 2734 c-51 -22 -121 -94 -91 -94 5 0 13 9 16 21 7 19 7 20 21 2
7 -10 14 -27 14 -38 0 -15 2 -17 9 -7 6 11 16 7 45 -18 20 -18 36 -39 36 -47
0 -13 3 -13 26 1 l25 17 -15 -30 c-9 -16 -20 -33 -26 -36 -5 -3 -10 -10 -10
-14 0 -5 34 24 75 62 41 39 75 75 75 81 -1 31 -107 116 -144 116 -12 -1 -37
-8 -56 -16z m-27 -60 c-4 -12 -8 -13 -14 -3 -9 15 -2 32 11 24 5 -3 6 -13 3
-21z"/>
</g>
</svg>
